# created using a simple obj writer by Geert van Ieperen
# calling method: ColladaLoader.Converter.writeMapping(Converter.java:60)                          
v 0.47372890 -0.54777598 0.99171865
v 0.47372890 1.45222402 -0.00828135
v -1.02627110 -0.54777598 -0.00828135
v -1.02627110 -0.54777598 -0.00828135
v 0.47372890 1.45222402 -0.00828135
v 0.47372890 -0.54777598 -1.00828135
vn -0.51214749 0.38411063 0.76822126
vn -0.51214749 0.38411063 0.76822126
vn -0.51214749 0.38411063 0.76822126
vn -0.51214749 0.38411063 -0.76822126
vn -0.51214749 0.38411063 -0.76822126
vn -0.51214749 0.38411063 -0.76822126
usemtl None
s off

f  1//1 2//2 3//3
f  4//4 5//5 6//6
