# created using a simple obj writer by Geert van Ieperen
# calling method: unrelated.unused.NGRobotSecondShapes.<clinit>(NGRobotSecondShapes.java:26)                           
mtllib arrow.mtl
v 1.500000000 0.000000000 0.000000000
v 0.000000000 2.000000000 0.000000000
v 0.000000000 0.000000000 1.000000000
v 0.000000000 0.000000000 -1.000000000
v 0.000000000 2.000000000 -0.000000000
v 1.500000000 0.000000000 -0.000000000
vn 0.512147486 0.384110630 0.768221259
vn 0.512147486 0.384110630 -0.768221259
usemtl None
s off

f  1//1 2//1 3//1
f  4//2 5//2 6//2
