# Blender v2.79 (sub 0) OBJ File: ''
# www.blender.org
o Cube_Cube.001
v -0.038564 0.073785 -0.016811
v 0.001385 0.083075 -0.016876
v -0.027413 0.004672 -0.034071
v 0.027532 -0.004698 -0.034071
v -0.038564 0.073785 0.017025
v 0.001385 0.083075 0.017089
v -0.027413 0.004672 0.034284
v 0.027532 -0.004698 0.034284
v -0.056606 0.121053 -0.009722
v -0.036470 0.131972 -0.009759
v -0.036470 0.131972 0.009972
v -0.056606 0.121053 0.009935
v -0.062886 0.143707 0.000107
vn -0.0558 0.2334 -0.9708
vn -0.1681 -0.9858 0.0000
vn -0.0558 0.2334 0.9708
vn -0.0683 0.1225 0.9901
vn -0.9872 -0.1593 0.0000
vn 0.9584 0.2855 0.0000
vn 0.7907 0.6122 0.0000
vn -0.9343 -0.3566 0.0000
vn -0.0298 0.1213 -0.9922
vn -0.1894 0.3461 -0.9189
vn -0.9637 -0.2672 -0.0000
vn 0.4060 0.9139 0.0000
vn -0.1894 0.3461 0.9189
vn 0.0344 0.2020 -0.9788
vn 0.0344 0.2020 0.9788
vn -0.0298 0.1213 0.9922
vn -0.0683 0.1225 -0.9901
s off
f 2//1 3//1 1//1
f 4//2 7//2 3//2
f 7//3 6//3 5//3
f 5//4 11//4 12//4
f 3//5 5//5 1//5
f 4//6 6//6 8//6
f 2//7 11//7 6//7
f 5//8 9//8 1//8
f 1//9 10//9 2//9
f 10//10 9//10 13//10
f 9//11 12//11 13//11
f 11//12 10//12 13//12
f 12//13 11//13 13//13
f 2//14 4//14 3//14
f 4//2 8//2 7//2
f 7//15 8//15 6//15
f 5//16 6//16 11//16
f 3//5 7//5 5//5
f 4//6 2//6 6//6
f 2//7 10//7 11//7
f 5//8 12//8 9//8
f 1//17 9//17 10//17
