# Blender v2.79 (sub 0) OBJ File: ''
# www.blender.org
o Cube_Cube.001
v 0.321252 0.614667 0.140046
v -0.011536 0.692054 0.140583
v -0.229353 -0.039141 0.283829
v 0.228367 0.038916 0.283829
v -0.229353 -0.039141 -0.285605
v 0.228367 0.038916 -0.285605
v -0.011536 0.692054 -0.142360
v 0.321252 0.614667 -0.141822
v 0.303814 1.099389 -0.083075
v 0.471553 1.008424 -0.082763
v 0.303814 1.099389 0.081299
v 0.471553 1.008424 0.080986
v 0.523874 1.197145 -0.000888
vn 0.0211 0.2216 0.9749
vn -0.0106 0.2105 0.9775
vn 0.0558 0.2334 0.9708
vn 0.1681 -0.9858 -0.0000
vn -0.0106 0.2105 -0.9775
vn 0.0211 0.2216 -0.9749
vn 0.0558 0.2334 -0.9708
vn 0.0388 0.1216 -0.9918
vn 0.0530 0.1220 -0.9911
vn 0.0682 0.1225 -0.9901
vn 0.9872 -0.1593 -0.0000
vn -0.9584 0.2855 0.0000
vn -0.7907 0.6122 0.0000
vn 0.9343 -0.3566 0.0000
vn 0.0388 0.1216 0.9918
vn 0.0530 0.1220 0.9911
vn 0.0298 0.1213 0.9922
vn 0.1894 0.3461 0.9189
vn 0.9637 -0.2672 0.0000
vn -0.4060 0.9139 0.0000
vn 0.1894 0.3461 -0.9189
vn -0.0344 0.2020 0.9788
vn -0.0344 0.2020 -0.9788
vn 0.0298 0.1213 -0.9922
vn 0.0683 0.1225 0.9901
s 1
f 2//1 4//2 1//3
f 3//4 6//4 4//4
f 6//5 7//6 8//7
f 8//8 9//9 10//10
f 6//11 1//11 4//11
f 5//12 2//12 7//12
f 2//13 9//13 7//13
f 8//14 12//14 1//14
f 1//15 11//16 2//17
f 11//18 12//18 13//18
f 12//19 10//19 13//19
f 9//20 11//20 13//20
f 10//21 9//21 13//21
f 2//1 3//22 4//2
f 3//4 5//4 6//4
f 6//5 5//23 7//6
f 8//8 7//24 9//9
f 6//11 8//11 1//11
f 5//12 3//12 2//12
f 2//13 11//13 9//13
f 8//14 10//14 12//14
f 1//15 12//25 11//16
